<?xml version="1.0" standalone="no"?><!DOCTYPE svg PUBLIC "-//W3C//DTD SVG 1.1//EN" "http://www.w3.org/Graphics/SVG/1.1/DTD/svg11.dtd"><svg t="1734194155354" class="icon" viewBox="0 0 1024 1024" version="1.1" xmlns="http://www.w3.org/2000/svg" p-id="4301" xmlns:xlink="http://www.w3.org/1999/xlink" width="200" height="200"><path d="M860.6 311.5H160.3c-16.2 0-29.3-13.1-29.3-29.3 0-16.2 13.1-29.3 29.3-29.3h700.2c16.2 0 29.3 13.1 29.3 29.3 0.1 16.2-13 29.3-29.2 29.3zM681.9 956.2H336.4c-81.8 0-148.4-66.6-148.4-148.4V312h60v495.8c0 48.8 39.7 88.4 88.4 88.4h345.4c48.8 0 88.4-39.7 88.4-88.4V312h60v495.8c0.1 81.8-66.5 148.4-148.3 148.4z" fill="#d81e06" p-id="4302"></path><path d="M712 267.8h-60c0-78-63.5-141.5-141.5-141.5S369 189.8 369 267.8h-60c0-111.1 90.4-201.5 201.5-201.5S712 156.6 712 267.8zM368.3 779.5c-17.7 0-32-14.3-32-32V460.4c0-17.7 14.3-32 32-32s32 14.3 32 32v287.2c0 17.6-14.4 31.9-32 31.9zM504.4 779.5c-17.7 0-32-14.3-32-32V460.4c0-17.7 14.3-32 32-32s32 14.3 32 32v287.2c0 17.6-14.3 31.9-32 31.9zM650.5 779.5c-17.7 0-32-14.3-32-32V460.4c0-17.7 14.3-32 32-32s32 14.3 32 32v287.2c0 17.6-14.4 31.9-32 31.9z" fill="#d81e06" p-id="4303"></path></svg>