<?xml version="1.0" standalone="no"?><!DOCTYPE svg PUBLIC "-//W3C//DTD SVG 1.1//EN" "http://www.w3.org/Graphics/SVG/1.1/DTD/svg11.dtd"><svg t="1734153531900" class="icon" viewBox="0 0 1024 1024" version="1.1" xmlns="http://www.w3.org/2000/svg" p-id="6402" xmlns:xlink="http://www.w3.org/1999/xlink" width="200" height="200"><path d="M901.12 815.616l-148.992-137.216c22.7328-32.0512 34.2016-71.0656 32.5632-110.6944-1.2288-29.7984-10.0352-57.7536-24.3712-82.0224v-339.968H602.8288v-42.496H259.8912v42.496H102.4V921.6h657.92V788.7872l76.4928 89.1904c8.4992 10.1376 20.992 16.0768 34.4064 16.0768 11.6736 0 22.7328-4.5056 31.1296-12.5952 8.9088-8.6016 13.9264-20.6848 13.6192-33.1776-0.1024-12.4928-5.5296-24.3712-14.848-32.6656zM278.7328 121.9584h305.3568v111.0016H278.7328V121.9584z m462.848 780.9024H121.1392V164.4544h138.752v87.2448h342.8352v-87.2448h138.752v295.1168c-15.872-18.432-35.4304-33.6896-57.5488-44.3392V295.6288H531.2512v119.3984c-21.4016 10.1376-40.96 24.2688-57.1392 42.3936-34.2016 38.4-49.664 88.064-43.7248 139.6736 7.2704 62.3616 46.7968 113.8688 100.7616 139.264v122.1632h152.6784V735.9488c7.168-3.4816 14.1312-7.3728 20.7872-11.8784L741.376 766.976v135.8848zM665.1904 314.368v93.2864c-13.7216-4.8128-28.2624-7.9872-43.3152-9.216-24.8832-2.048-49.152 1.3312-71.8848 9.0112V314.368h115.2zM549.9904 839.7824v-95.9488c18.0224 6.0416 37.2736 9.5232 57.2416 9.5232 20.2752-0.1024 39.7312-3.4816 57.9584-9.8304v96.256H549.9904z m339.456 28.16c-10.5472 10.1376-28.8768 9.1136-38.1952-2.048l-143.36-167.1168-6.9632 5.2224c-26.8288 19.968-58.9824 30.5152-92.7744 30.72-81.6128 0-149.6064-60.1088-158.8224-139.6736-5.4272-46.2848 8.4992-90.7264 39.1168-125.0304 30.208-33.8944 73.5232-53.3504 118.784-53.3504 4.4032 0 8.9088 0.2048 13.4144 0.512 79.5648 6.5536 142.2336 71.68 145.6128 151.4496 1.6384 38.0928-10.3424 75.4688-33.792 105.2672l-5.3248 6.7584L888.832 829.5424c5.632 5.0176 8.704 11.776 8.9088 19.0464-0.2048 7.3728-3.072 14.2336-8.2944 19.3536z" fill="#bfbfbf" p-id="6403"></path><path d="M214.7328 334.1312h283.7504v18.7392H214.7328zM256.512 391.0656h242.0736v18.7392H256.512zM214.8352 540.8768h187.6992v18.7392H214.8352zM256.512 597.8112h131.7888v18.7392H256.512zM214.7328 744.3456h283.7504v18.7392H214.7328zM256.512 801.28h242.0736v18.7392H256.512zM677.376 489.8816l-73.4208 73.4208-73.5232-73.4208-13.2096 13.2096 73.4208 73.4208-73.4208 73.5232 13.2096 13.2096 73.5232-73.4208 73.4208 73.4208 13.2096-13.2096-73.4208-73.5232 73.4208-73.4208z" fill="#bfbfbf" p-id="6404"></path></svg>