<?xml version="1.0" standalone="no"?><!DOCTYPE svg PUBLIC "-//W3C//DTD SVG 1.1//EN" "http://www.w3.org/Graphics/SVG/1.1/DTD/svg11.dtd"><svg t="1732610497379" class="icon" viewBox="0 0 1024 1024" version="1.1" xmlns="http://www.w3.org/2000/svg" p-id="1250" xmlns:xlink="http://www.w3.org/1999/xlink" width="200" height="200"><path d="M552.71 271.86c0-24.73-20.04-44.77-44.77-44.77H231.16c-24.73 0-44.77 20.04-44.77 44.77v276.77c0 24.73 20.04 44.77 44.77 44.77h276.77c24.73 0 44.77-20.04 44.77-44.77V271.86z m-44.77 276.77H231.16V271.86h276.77v276.77z" p-id="1251"></path><path d="M874.25 64.28h-724.5c-24.73 0-44.77 20.05-44.77 44.77v724.49c0 24.73 20.05 44.77 44.77 44.77h36.83c-0.12 1.34-0.19 2.7-0.19 4.07v32.56c0 24.73 20.05 44.77 44.77 44.77h73.26c24.73 0 44.77-20.04 44.77-44.77v-32.56c0-1.37-0.07-2.73-0.19-4.07h325.98c-0.12 1.34-0.19 2.7-0.19 4.07v32.56c0 24.73 20.04 44.77 44.77 44.77h73.26c24.73 0 44.77-20.04 44.77-44.77v-32.56c0-1.37-0.07-2.73-0.19-4.07h36.84c24.72 0 44.77-20.04 44.77-44.77V109.05c0.01-24.72-20.04-44.77-44.76-44.77zM304.43 914.95h-73.26v-32.56h73.26v32.56z m488.4 0h-73.26v-32.56h73.26v32.56zM638.18 259.61c3.71 4.96 9.61 8.18 16.28 8.18 11.24 0 20.35-9.11 20.35-20.35 0-11.24-9.12-20.35-20.35-20.35-6.67 0-12.57 3.22-16.28 8.18v-44.82h154.66v113.96H638.18v-44.8z m0 93.65h154.66v32.56H638.18v-32.56z m0 150.56c3.71 4.96 9.61 8.18 16.28 8.18 11.24 0 20.35-9.11 20.35-20.35 0-11.24-9.12-20.35-20.35-20.35-6.67 0-12.57 3.22-16.28 8.18V430.6h154.66v118.04H638.18v-44.82z m154.66-394.77v32.56H638.18v-32.56h154.66zM149.75 833.54v-73.26h358.18v73.26H149.75z m358.18-118.03H149.75V109.05H593.4v439.57c0 24.73 20.04 44.77 44.77 44.77h154.66c1.37 0 2.73-0.07 4.07-0.19v240.33H552.7v-73.26c0-24.71-20.04-44.76-44.77-44.76z m333.75 118.03V109.05h32.56v724.49h-32.56z" p-id="1252"></path><path d="M206.74 186.39c11.24 0 20.35-9.11 20.35-20.35 0-11.24-9.11-20.35-20.35-20.35-11.24 0-20.35 9.11-20.35 20.35 0 11.23 9.11 20.35 20.35 20.35zM206.74 634.11c-11.24 0-20.35 9.11-20.35 20.35 0 11.24 9.11 20.35 20.35 20.35 11.24 0 20.35-9.11 20.35-20.35 0-11.24-9.11-20.35-20.35-20.35zM532.35 186.39c11.24 0 20.35-9.11 20.35-20.35 0-11.24-9.11-20.35-20.35-20.35-11.24 0-20.35 9.11-20.35 20.35-0.01 11.23 9.1 20.35 20.35 20.35zM532.35 634.11c-11.24 0-20.35 9.11-20.35 20.35 0 11.24 9.11 20.35 20.35 20.35 11.24 0 20.35-9.11 20.35-20.35 0-11.24-9.12-20.35-20.35-20.35zM288.15 776.56h-81.4c-11.24 0-20.35 9.11-20.35 20.35 0 11.24 9.11 20.35 20.35 20.35h81.4c11.24 0 20.35-9.11 20.35-20.35 0-11.24-9.11-20.35-20.35-20.35z" p-id="1253"></path></svg>