<?xml version="1.0" standalone="no"?><!DOCTYPE svg PUBLIC "-//W3C//DTD SVG 1.1//EN" "http://www.w3.org/Graphics/SVG/1.1/DTD/svg11.dtd"><svg t="1732610518174" class="icon" viewBox="0 0 1024 1024" version="1.1" xmlns="http://www.w3.org/2000/svg" p-id="2031" xmlns:xlink="http://www.w3.org/1999/xlink" width="200" height="200"><path d="M918.81 776.91V248.83l10.49-10.49c39.81-39.81 39.81-104.35 0-144.15-39.81-39.81-104.34-39.81-144.16 0l-11.64 11.64H247.72l-8.86-8.86c-39.81-39.81-104.35-39.81-144.15 0-39.81 39.81-39.81 104.35 0 144.15l8.65 8.65v526.2l-6.91 6.91c-39.81 39.81-39.81 104.34 0 144.16 39.81 39.81 104.35 39.81 144.15 0l5.76-5.76h528.51l8.54 8.54c39.81 39.81 104.34 39.81 144.15 0s39.81-104.34 0-144.15l-8.75-8.76z m-40.78-263.36v222.59l-45.49-45.49c-0.04 0.07-0.08 0.14-0.12 0.22 29.06-52.57 45.61-113.01 45.61-177.32 0-64.58-16.69-125.26-45.98-177.98l45.98-45.98v223.96z m-48.01 181.58c-0.02 0.04-0.04 0.08-0.07 0.12 0.03-0.04 0.05-0.08 0.07-0.12z m-8.07 13.47c-0.06 0.09-0.11 0.18-0.17 0.27 0.06-0.09 0.12-0.18 0.17-0.27z m-2.71 4.25c-0.11 0.17-0.22 0.33-0.33 0.5 0.11-0.17 0.22-0.33 0.33-0.5z m-2.88 4.37c-0.08 0.12-0.16 0.25-0.25 0.37 0.09-0.13 0.17-0.25 0.25-0.37zM511.08 839.73c-180.14 0-326.18-146.03-326.18-326.18 0-180.14 146.04-326.18 326.18-326.18 180.14 0 326.18 146.04 326.18 326.18 0 180.15-146.03 326.18-326.18 326.18z m389.38-716.71c23.88 23.88 23.88 62.61 0 86.49l-90.75 90.75 0.08 0.11a369.165 369.165 0 0 0-86.76-86.41l90.95-90.94c23.87-23.89 62.6-23.89 86.48 0z m-76.32 199.01c-0.01-0.01-0.01-0.02-0.02-0.03 0.01 0.01 0.01 0.02 0.02 0.03z m-2.69-4.33c-0.05-0.08-0.1-0.16-0.16-0.25 0.05 0.09 0.11 0.17 0.16 0.25z m-2.87-4.46l-0.06-0.09 0.06 0.09zM511.08 146.6h221.65l-45.15 45.16c0.18 0.1 0.36 0.2 0.55 0.31-52.51-28.98-112.85-45.47-177.05-45.47-64.64 0-125.37 16.72-178.11 46.05 0.34-0.19 0.67-0.38 1.01-0.57l-45.49-45.49h222.59z m207.88 64.53c-0.22-0.15-0.43-0.3-0.65-0.44 0.22 0.14 0.44 0.29 0.65 0.44z m-4.12-2.8c-0.28-0.19-0.57-0.38-0.85-0.57 0.28 0.19 0.57 0.38 0.85 0.57z m-4.31-2.84c-0.25-0.16-0.49-0.32-0.73-0.48 0.24 0.16 0.48 0.32 0.73 0.48z m-4.82-3.07l-0.09-0.06 0.09 0.06z m-8.87-5.4c-0.18-0.11-0.37-0.22-0.55-0.32 0.18 0.11 0.36 0.22 0.55 0.32z m-4.31-2.49c-0.3-0.17-0.6-0.34-0.91-0.51 0.31 0.17 0.61 0.34 0.91 0.51zM123.54 125.8c23.88-23.88 62.61-23.88 86.49 0l88.55 88.55c0.76-0.54 1.52-1.06 2.28-1.6a369.15 369.15 0 0 0-93.47 94.76c1.53-2.25 3.08-4.5 4.66-6.71l-88.52-88.52c-23.87-23.87-23.87-62.6 0.01-86.48z m207.47 67.95c-0.76 0.43-1.51 0.85-2.26 1.28 0.75-0.43 1.5-0.85 2.26-1.28z m-4.18 2.4c-1.47 0.86-2.94 1.72-4.39 2.6 1.45-0.88 2.91-1.74 4.39-2.6z m-6.05 3.59c-0.76 0.46-1.52 0.94-2.28 1.41 0.75-0.47 1.51-0.95 2.28-1.41z m-4.11 2.53c-0.76 0.47-1.51 0.95-2.26 1.43 0.75-0.47 1.51-0.95 2.26-1.43z m-4.05 2.58c-0.75 0.49-1.51 0.97-2.26 1.47 0.75-0.49 1.5-0.98 2.26-1.47z m-4.02 2.63l-2.25 1.5c0.75-0.51 1.5-1.01 2.25-1.5z m-3.97 2.67c-0.75 0.51-1.5 1.02-2.25 1.54 0.74-0.52 1.5-1.03 2.25-1.54z m-160.5 303.4V290.54l45.64 45.64c0.2-0.36 0.4-0.71 0.6-1.06-29.46 52.81-46.24 113.66-46.24 178.43 0 64.59 16.69 125.28 45.99 178-0.28-0.5-0.56-1-0.84-1.51l-45.15 45.15V513.55z m62.54-204.97c-0.59 0.88-1.18 1.76-1.76 2.64 0.58-0.88 1.17-1.76 1.76-2.64z m-2.64 3.97c-0.57 0.87-1.13 1.74-1.69 2.61 0.56-0.88 1.12-1.75 1.69-2.61z m-2.57 3.97c-0.56 0.88-1.12 1.76-1.68 2.65 0.56-0.89 1.12-1.77 1.68-2.65z m-2.45 3.89c-0.58 0.94-1.17 1.89-1.75 2.83 0.59-0.94 1.17-1.88 1.75-2.83z m-1.91 3.13c-1.41 2.32-2.79 4.66-4.15 7.02 1.35-2.36 2.74-4.7 4.15-7.02z m-4.37 7.39z m-67.46 567.28c-23.88-23.88-23.88-62.61 0-86.49l86.21-86.21c-0.45-0.64-0.9-1.29-1.35-1.93a369.109 369.109 0 0 0 88.28 89.06c-0.21-0.15-0.42-0.29-0.63-0.44l-86.02 86.02c-23.88 23.87-62.6 23.87-86.49-0.01z m65.74-205.07z m2.35 4.12c0.5 0.87 1 1.73 1.51 2.59-0.5-0.86-1.01-1.72-1.51-2.59z m2.27 3.87a412.09 412.09 0 0 1 0 0z m3.95 6.47z m2.57 4.06c0.53 0.83 1.07 1.65 1.61 2.48-0.54-0.83-1.08-1.65-1.61-2.48z m2.62 4.01c0.53 0.81 1.07 1.61 1.61 2.42-0.54-0.81-1.08-1.61-1.61-2.42z m2.66 3.97zM511.08 880.5H287.13l45.97-45.97c-0.22-0.12-0.45-0.25-0.67-0.38 52.87 29.53 113.8 46.35 178.65 46.35 64.48 0 125.08-16.64 177.73-45.84-0.12 0.07-0.24 0.14-0.36 0.2l45.64 45.64H511.08z m-211.11-66.78c2.8 1.97 5.63 3.91 8.49 5.81-2.86-1.9-5.69-3.83-8.49-5.81z m9.92 6.76c0.82 0.54 1.65 1.07 2.47 1.61-0.82-0.54-1.65-1.07-2.47-1.61z m4.02 2.6l2.46 1.56-2.46-1.56z m4.03 2.53c0.84 0.52 1.67 1.04 2.51 1.55-0.84-0.51-1.68-1.03-2.51-1.55z m3.96 2.43c0.89 0.53 1.77 1.07 2.67 1.6-0.89-0.53-1.78-1.07-2.67-1.6z m3.18 1.9c2.03 1.2 4.08 2.38 6.14 3.53a539.5 539.5 0 0 1-6.14-3.53z m390.33-11.55c-0.19 0.13-0.38 0.25-0.57 0.38 0.19-0.13 0.38-0.25 0.57-0.38z m-4.16 2.75c-0.27 0.18-0.54 0.35-0.81 0.53 0.27-0.18 0.54-0.35 0.81-0.53z m-4.32 2.78c-0.24 0.15-0.49 0.31-0.73 0.46 0.24-0.15 0.48-0.31 0.73-0.46z m-4.72 2.93c-0.08 0.05-0.16 0.1-0.23 0.14 0.08-0.04 0.15-0.09 0.23-0.14z m-9.1 5.39c-0.12 0.07-0.25 0.14-0.37 0.21 0.12-0.07 0.24-0.14 0.37-0.21z m205.61 68.74c-23.88 23.88-62.61 23.88-86.49 0l-88.41-88.41a369.305 369.305 0 0 0 86.46-86.52l88.44 88.44c23.89 23.89 23.89 62.61 0 86.49z" p-id="2032"></path><path d="M796.43 509.1c-2.36-154.09-126.81-278.54-280.9-280.9-1.48-0.03-2.96-0.06-4.45-0.06-1.49 0-2.97 0.02-4.45 0.06-154.09 2.36-278.54 126.81-280.9 280.9-0.03 1.48-0.06 2.96-0.06 4.45 0 1.49 0.02 2.97 0.06 4.45 2.36 154.09 126.81 278.54 280.9 280.9 1.48 0.03 2.96 0.06 4.45 0.06 1.49 0 2.97-0.02 4.45-0.06 154.09-2.36 278.54-126.81 280.9-280.9 0.03-1.48 0.06-2.96 0.06-4.45 0-1.49-0.03-2.97-0.06-4.45z m-57.88 66.07c-9.15 11.89-22.59 19.92-43.99 19.92-4.75 0-14.1-2.09-28.44-9.23-13.68-6.81-28.78-16.63-44.09-28.06-30.25-22.58-30.25-65.93 0-88.51 15.31-11.43 30.42-21.25 44.09-28.06 14.34-7.14 23.69-9.23 28.44-9.23 21.4 0 34.84 8.03 43.99 19.92 10.12 13.15 17.17 34.18 17.17 61.62 0 27.45-7.05 48.48-17.17 61.63z m-13.13-179.6c-9.37-2.82-19.66-4.34-30.86-4.34-27.91 0-64.08 20.88-96.92 45.39-9.68 7.22-17.56 15.74-23.64 25.05a82.265 82.265 0 0 0-11.04-11.04c9.32-6.08 17.83-13.96 25.05-23.64 24.51-32.84 45.39-69.01 45.39-96.92 0-11.2-1.51-21.49-4.34-30.86 40.52 22.35 74.01 55.85 96.36 96.36zM572.7 741.02c-13.15 10.12-34.18 17.17-61.62 17.17-27.44 0-48.47-7.05-61.62-17.17-11.89-9.15-19.92-22.59-19.92-43.99 0-4.75 2.09-14.1 9.23-28.44 6.81-13.68 16.63-28.78 28.06-44.09 22.58-30.25 65.93-30.25 88.51 0 11.43 15.31 21.25 30.42 28.06 44.09 7.14 14.34 9.23 23.69 9.23 28.44 0 21.4-8.04 34.84-19.93 43.99zM449.46 286.09c13.15-10.12 34.18-17.17 61.62-17.17 27.44 0 48.47 7.05 61.62 17.17 11.89 9.15 19.92 22.59 19.92 43.99 0 4.75-2.09 14.1-9.23 28.44-6.81 13.68-16.63 28.78-28.06 44.09-22.58 30.25-65.93 30.25-88.51 0-11.43-15.32-21.25-30.42-28.06-44.09-7.14-14.34-9.23-23.69-9.23-28.44 0.01-21.41 8.04-34.84 19.93-43.99z m102.39 227.46c0 22.52-18.25 40.77-40.77 40.77s-40.77-18.25-40.77-40.77c0-22.52 18.25-40.77 40.77-40.77s40.77 18.25 40.77 40.77zM393.1 299.21c-2.82 9.37-4.34 19.66-4.34 30.86 0 27.91 20.88 64.08 45.39 96.92 7.22 9.68 15.74 17.56 25.05 23.64a82.265 82.265 0 0 0-11.04 11.04c-6.08-9.32-13.96-17.83-23.64-25.05-32.84-24.51-69.01-45.39-96.92-45.39-11.2 0-21.49 1.51-30.86 4.34 22.35-40.51 55.85-74.01 96.36-96.36zM283.62 575.17c-10.12-13.15-17.17-34.18-17.17-61.62 0-27.44 7.05-48.47 17.17-61.62 9.15-11.89 22.59-19.92 43.99-19.92 4.75 0 14.1 2.09 28.44 9.23 13.68 6.81 28.78 16.63 44.09 28.06 30.25 22.58 30.25 65.93 0 88.51-15.32 11.43-30.42 21.25-44.09 28.06-14.34 7.14-23.69 9.23-28.44 9.23-21.41 0-34.84-8.04-43.99-19.93z m13.12 56.36c9.37 2.82 19.66 4.34 30.86 4.34 27.91 0 64.08-20.88 96.92-45.39 9.68-7.22 17.56-15.74 23.64-25.05 3.32 4.02 7.02 7.72 11.04 11.04-9.32 6.08-17.83 13.96-25.05 23.64-24.51 32.84-45.39 69-45.39 96.92 0 11.2 1.51 21.49 4.34 30.86-40.51-22.35-74.01-55.84-96.36-96.36z m332.32 96.36c2.82-9.37 4.34-19.66 4.34-30.86 0-27.91-20.88-64.08-45.39-96.92-7.22-9.68-15.74-17.56-25.05-23.64 4.02-3.32 7.72-7.02 11.04-11.04 6.08 9.32 13.96 17.83 23.64 25.05 32.84 24.51 69 45.39 96.92 45.39 11.2 0 21.49-1.51 30.86-4.34a245.716 245.716 0 0 1-96.36 96.36z" p-id="2033"></path><path d="M144.682373 171.664844a20.39 20.39 0 1 0 39.688526-9.371731 20.39 20.39 0 1 0-39.688526 9.371731Z" p-id="2034"></path><path d="M144.715161 864.786367a20.39 20.39 0 1 0 39.688525-9.371731 20.39 20.39 0 1 0-39.688525 9.371731Z" p-id="2035"></path><path d="M857.65 860.12m-20.39 0a20.39 20.39 0 1 0 40.78 0 20.39 20.39 0 1 0-40.78 0Z" p-id="2036"></path><path d="M857.65 166.99m-20.39 0a20.39 20.39 0 1 0 40.78 0 20.39 20.39 0 1 0-40.78 0Z" p-id="2037"></path></svg>