<?xml version="1.0" standalone="no"?><!DOCTYPE svg PUBLIC "-//W3C//DTD SVG 1.1//EN" "http://www.w3.org/Graphics/SVG/1.1/DTD/svg11.dtd"><svg t="1732610477165" class="icon" viewBox="0 0 1024 1024" version="1.1" xmlns="http://www.w3.org/2000/svg" p-id="940" xmlns:xlink="http://www.w3.org/1999/xlink" width="200" height="200"><path d="M914.56 377.25c24.73 0 44.77-20.04 44.77-44.77v-89.54c0-24.73-20.04-44.77-44.77-44.77H869.8c0-24.73-20.04-44.77-44.77-44.77v-44.77c0-24.73-20.04-44.77-44.77-44.77h-89.54c-24.73 0-44.77 20.04-44.77 44.77v44.77h-44.77v-44.77c0-24.73-20.04-44.77-44.77-44.77h-89.54c-24.73 0-44.77 20.04-44.77 44.77v44.77h-44.77v-44.77c0-24.73-20.04-44.77-44.77-44.77h-89.54c-24.73 0-44.77 20.04-44.77 44.77v44.77c-24.72 0-44.77 20.04-44.77 44.77h-44.77c-24.73 0-44.77 20.04-44.77 44.77v89.54c0 24.73 20.04 44.77 44.77 44.77h44.77v44.77h-44.77c-24.73 0-44.77 20.04-44.77 44.77v89.54c0 24.73 20.04 44.77 44.77 44.77h44.77v44.77h-44.77c-24.73 0-44.77 20.04-44.77 44.77v89.54c0 24.73 20.04 44.77 44.77 44.77h44.77c0 24.73 20.04 44.77 44.77 44.77v44.77c0 24.73 20.04 44.77 44.77 44.77h89.54c24.73 0 44.77-20.04 44.77-44.77v-44.77h44.77v44.77c0 24.73 20.04 44.77 44.77 44.77h89.54c24.73 0 44.77-20.04 44.77-44.77v-44.77h44.77v44.77c0 24.73 20.04 44.77 44.77 44.77h89.54c24.73 0 44.77-20.04 44.77-44.77v-44.77c24.73 0 44.77-20.04 44.77-44.77h44.77c24.73 0 44.77-20.04 44.77-44.77v-89.54c0-24.73-20.04-44.77-44.77-44.77H869.8V601.1h44.77c24.73 0 44.77-20.04 44.77-44.77v-89.54c0-24.73-20.04-44.77-44.77-44.77H869.8v-44.77h44.76zM869.8 242.94h44.77v89.54H869.8v-89.54z m-179.08-134.3h89.54v44.77h-89.54v-44.77z m-223.85 0h89.54v44.77h-89.54v-44.77z m-223.84 0h89.54v44.77h-89.54v-44.77zM108.72 332.48v-89.54h44.77v89.54h-44.77z m0 223.85v-89.54h44.77v89.54h-44.77z m0 223.84v-89.54h44.77v89.54h-44.77z m223.85 134.31h-89.54v-44.77h89.54v44.77z m223.84 0h-89.54v-44.77h89.54v44.77z m223.85 0h-89.54v-44.77h89.54v44.77z m44.77-223.85v134.31H198.26V198.17h626.78V690.63z m89.53 0v89.54H869.8v-89.54h44.76z m0-223.84v89.54H869.8v-89.54h44.76z" p-id="941"></path><path d="M690.72 287.71H332.57c-24.73 0-44.77 20.04-44.77 44.77v358.15c0 24.73 20.04 44.77 44.77 44.77h358.15c24.73 0 44.77-20.04 44.77-44.77V332.48c0-24.72-20.04-44.77-44.77-44.77z m0 402.92H332.57V332.48h358.15v358.15z" p-id="942"></path><path d="M444.49 466.79H578.8c12.36 0 22.38-10.02 22.38-22.38s-10.02-22.38-22.38-22.38H444.49c-12.36 0-22.38 10.02-22.38 22.38s10.02 22.38 22.38 22.38zM444.49 601.1H578.8c12.36 0 22.38-10.02 22.38-22.38s-10.02-22.38-22.38-22.38H444.49c-12.36 0-22.38 10.02-22.38 22.38 0 12.35 10.02 22.38 22.38 22.38z" p-id="943"></path></svg>