<?xml version="1.0" standalone="no"?><!DOCTYPE svg PUBLIC "-//W3C//DTD SVG 1.1//EN" "http://www.w3.org/Graphics/SVG/1.1/DTD/svg11.dtd"><svg t="1734170075842" class="icon" viewBox="0 0 1024 1024" version="1.1" xmlns="http://www.w3.org/2000/svg" p-id="14272" xmlns:xlink="http://www.w3.org/1999/xlink" width="200" height="200"><path d="M665.6 716.8a51.2 51.2 0 0 0-51.2 51.2v102.4H102.4V153.6h512v102.4a51.2 51.2 0 0 0 102.4 0V102.4a51.2 51.2 0 0 0-51.2-51.2H51.2a51.2 51.2 0 0 0-51.2 51.2v819.2a51.2 51.2 0 0 0 51.2 51.2h614.4a51.2 51.2 0 0 0 51.2-51.2v-153.6a51.2 51.2 0 0 0-51.2-51.2z" fill="#ffffff" p-id="14273"></path><path d="M1008.128 475.136L834.56 301.568a51.2 51.2 0 0 0-72.704 72.192L848.384 460.8H307.2a51.2 51.2 0 0 0 0 102.4h541.184l-86.528 86.528a51.2 51.2 0 1 0 72.192 72.192l173.568-173.568a51.2 51.2 0 0 0 0.512-73.216z" fill="#ffffff" p-id="14274"></path></svg>