<?xml version="1.0" standalone="no"?><!DOCTYPE svg PUBLIC "-//W3C//DTD SVG 1.1//EN" "http://www.w3.org/Graphics/SVG/1.1/DTD/svg11.dtd"><svg t="1732610508619" class="icon" viewBox="0 0 1024 1024" version="1.1" xmlns="http://www.w3.org/2000/svg" p-id="1722" xmlns:xlink="http://www.w3.org/1999/xlink" width="200" height="200"><path d="M947.23 256.21l-28.75-28.75c-13.49-13.49-32.78-26.99-44.23-34.53-6.21-4.1-13.51-6.12-20.95-6.12H268.1v-40.65c0-22.45-18.2-40.65-40.65-40.65H105.52c-22.45 0-40.65 18.2-40.65 40.65v58.57c0 13.93 7.87 26.66 20.32 32.89a36.76 36.76 0 0 1 20.32 32.89v607.32c0 22.45 18.2 40.65 40.65 40.65h81.3c22.45 0 40.65-18.2 40.65-40.65V755.89h40.65v40.65c0 22.45 18.2 40.65 40.65 40.65h81.3c7.41 0 14.34-1.99 20.32-5.45a40.454 40.454 0 0 0 20.32 5.45h81.3c7.41 0 14.34-1.99 20.32-5.45a40.454 40.454 0 0 0 20.32 5.45h81.3c7.41 0 14.34-1.99 20.32-5.45a40.454 40.454 0 0 0 20.32 5.45h81.3c22.45 0 40.65-18.2 40.65-40.65v-40.65h81.3c22.45 0 40.65-18.2 40.65-40.65V284.95c0-10.78-4.28-21.11-11.9-28.74z m-466.56-28.75l-3.56 6.44a20.32 20.32 0 0 1-17.79 10.5h-78.76c-7.4 0-14.21-4.02-17.79-10.5l-3.56-6.44h121.46zM405.3 572.97H268.11V369.73H405.3c-13.55 67.72-13.55 135.52 0 203.24zM227.46 877.83h-81.3V270.51c0-28.51-15.67-54.65-40.65-68.13v-56.22h121.94V877.83zM430.7 715.24h-71.49l3.56-6.44a20.32 20.32 0 0 1 17.79-10.5h78.76c7.4 0 14.21 4.02 17.79 10.5l3.56 6.44H430.7z m-81.29 81.3v-40.65h81.3v40.65h-81.3z m121.94 0v-40.65h81.3v40.65h-81.3z m121.95 0v-40.65h81.3v40.65h-81.3z m203.24 0h-81.3v-40.65h81.3v40.65z m121.94-81.3H527.1l-14.41-26.1a60.984 60.984 0 0 0-53.37-31.49h-78.76a60.96 60.96 0 0 0-53.37 31.49l-14.42 26.1H268.1V613.62h188.62l-6.31-25.25c-19.51-78.06-19.51-155.97 0-234.03l6.31-25.25H268.11V227.46h44.67l14.42 26.1a60.96 60.96 0 0 0 53.37 31.49h78.76c22.19 0 42.64-12.06 53.37-31.49l14.41-26.1h325.67c11.09 7.36 26.84 18.63 36.96 28.74l28.74 28.74v430.3z" p-id="1723"></path><path d="M677.25 268.15a119.974 119.974 0 0 0-5.32 0C560.91 269.58 471.35 360 471.35 471.36c0 112.25 90.99 203.24 203.24 203.24s203.24-90.99 203.24-203.24c0-111.37-89.56-201.79-200.58-203.21z m142.81 161.63c2.54 0.37 4.06 1.23 5.89 3.35 2.39 2.76 5.13 7.72 7.21 15.22 2.03 7.33 2.91 15.23 2.91 21.89s-0.88 14.56-2.91 21.89c-2.08 7.5-4.82 12.47-7.21 15.23-1.83 2.12-3.36 2.97-5.89 3.35-3.33 0.49-11.68 0.48-27.07-6.36-23.19-10.3-28.77-25.04-28.77-34.1 0-9.06 5.58-23.8 28.77-34.1 15.39-6.85 23.74-6.86 27.07-6.37zM814.8 389c-10.91 0.4-23.59 3.45-38.31 9.99-14.99 6.66-26.78 15.51-35.4 25.62a81.748 81.748 0 0 0-21.07-20.69c10.19-8.63 19.12-20.49 25.83-35.58 6.45-14.52 9.5-27.05 9.97-37.87A163.413 163.413 0 0 1 814.8 389z m-99.75 226.71c-0.37 2.54-1.23 4.06-3.35 5.9-2.76 2.39-7.72 5.13-15.22 7.2-7.33 2.03-15.23 2.91-21.89 2.91s-14.56-0.88-21.89-2.91c-7.5-2.08-12.47-4.81-15.22-7.2-2.12-1.84-2.98-3.36-3.35-5.9-0.49-3.32-0.48-11.68 6.36-27.06 10.3-23.19 25.04-28.77 34.1-28.77 9.06 0 23.8 5.57 34.1 28.77 6.84 15.37 6.86 23.73 6.36 27.06zM674.59 512c-22.45 0-40.65-18.2-40.65-40.65s18.2-40.65 40.65-40.65 40.65 18.2 40.65 40.65S697.04 512 674.59 512z m-40.46-187.23c0.37-2.53 1.23-4.06 3.35-5.9 2.76-2.39 7.72-5.13 15.22-7.2 7.33-2.03 15.23-2.91 21.89-2.91s14.56 0.88 21.89 2.91c7.5 2.08 12.47 4.81 15.22 7.2 2.12 1.83 2.98 3.36 3.35 5.9 0.49 3.33 0.48 11.68-6.36 27.07-10.3 23.19-25.04 28.77-34.1 28.77-9.06 0-23.8-5.58-34.1-28.77-6.83-15.39-6.85-23.74-6.36-27.07z m-40.76 5.7c0.47 10.81 3.52 23.35 9.97 37.87 6.71 15.09 15.63 26.94 25.83 35.58-8.23 5.55-15.36 12.58-21.07 20.69-8.62-10.11-20.41-18.96-35.4-25.62-14.71-6.54-27.4-9.59-38.31-9.99a163.335 163.335 0 0 1 58.98-58.53zM529.12 510.7c-2.54-0.37-4.06-1.23-5.89-3.35-2.39-2.76-5.13-7.72-7.21-15.23-2.03-7.33-2.91-15.23-2.91-21.89s0.88-14.56 2.91-21.89c2.08-7.5 4.82-12.47 7.21-15.22 1.83-2.12 3.36-2.97 5.89-3.35 3.33-0.49 11.68-0.47 27.07 6.36 23.19 10.3 28.77 25.04 28.77 34.1 0 9.06-5.58 23.8-28.77 34.1-15.39 6.84-23.74 6.86-27.07 6.37z m3.99 40.81c11.19-0.2 24.29-3.24 39.58-10.03 14.49-6.44 26-14.92 34.54-24.61a81.704 81.704 0 0 0 20.52 20.9c-9.6 8.52-18.01 19.97-24.41 34.36-6.89 15.51-9.91 28.76-10.03 40.06-25.06-14.49-45.89-35.49-60.2-60.68z m222.76 60.69c-0.12-11.3-3.14-24.55-10.03-40.06-6.39-14.39-14.8-25.84-24.41-34.36 8.03-5.67 15-12.75 20.52-20.9 8.54 9.69 20.05 18.17 34.54 24.61 15.29 6.79 28.38 9.83 39.58 10.03a163.408 163.408 0 0 1-60.2 60.68z" p-id="1724"></path></svg>