<?xml version="1.0" standalone="no"?><!DOCTYPE svg PUBLIC "-//W3C//DTD SVG 1.1//EN" "http://www.w3.org/Graphics/SVG/1.1/DTD/svg11.dtd"><svg t="1732610501301" class="icon" viewBox="0 0 1024 1024" version="1.1" xmlns="http://www.w3.org/2000/svg" p-id="1405" xmlns:xlink="http://www.w3.org/1999/xlink" width="200" height="200"><path d="M694.25 147.49v-40.56c0-22.4-18.16-40.56-40.56-40.56h-40.56a40.4 40.4 0 0 0-20.28 5.44 40.4 40.4 0 0 0-20.28-5.44H532a40.4 40.4 0 0 0-20.28 5.44 40.4 40.4 0 0 0-20.28-5.44h-40.56a40.4 40.4 0 0 0-20.28 5.44 40.4 40.4 0 0 0-20.28-5.44h-40.56c-22.4 0-40.56 18.16-40.56 40.56v40.56c-22.4 0-40.56 18.16-40.56 40.56v730.13c0 22.4 18.16 40.56 40.56 40.56h113.57c8.57 0 16.93-2.72 23.86-7.76l21.25-15.45a40.551 40.551 0 0 1 47.72 0l21.25 15.45a40.563 40.563 0 0 0 23.86 7.76h113.57c22.4 0 40.56-18.16 40.56-40.56V188.05c-0.02-22.4-18.18-40.56-40.59-40.56z m-40.56-40.56v40.56h-40.56v-40.56h40.56z m-81.12 0v40.56H532v-40.56h40.57z m-81.13 0v40.56h-40.56v-40.56h40.56z m-121.69 0h40.56v40.56h-40.56v-40.56z m324.5 811.25H580.69l-21.25-15.45c-28.45-20.69-66.98-20.69-95.43 0l-21.25 15.45H329.19V188.05h365.05v730.13z" p-id="1406"></path><path d="M613.13 228.62H410.32c-22.4 0-40.56 18.16-40.56 40.56v202.81c0 22.4 18.16 40.56 40.56 40.56h202.81c22.4 0 40.56-18.16 40.56-40.56V269.18c0-22.4-18.16-40.56-40.56-40.56z m0 243.37H410.32V269.18h202.81v202.81zM613.13 553.12H410.32c-22.4 0-40.56 18.16-40.56 40.56v40.56c0 22.4 18.16 40.56 40.56 40.56h202.81c22.4 0 40.56-18.16 40.56-40.56v-40.56c0-22.4-18.16-40.56-40.56-40.56z m0 81.12H410.32v-40.56h202.81v40.56zM613.13 715.37H410.32c-22.4 0-40.56 18.16-40.56 40.56v40.56c0 22.4 18.16 40.56 40.56 40.56h202.81c22.4 0 40.56-18.16 40.56-40.56v-40.56c0-22.4-18.16-40.56-40.56-40.56z m0 81.12H410.32v-40.56h202.81v40.56z" p-id="1407"></path></svg>