<?xml version="1.0" standalone="no"?><!DOCTYPE svg PUBLIC "-//W3C//DTD SVG 1.1//EN" "http://www.w3.org/Graphics/SVG/1.1/DTD/svg11.dtd"><svg t="1734170146925" class="icon" viewBox="0 0 1024 1024" version="1.1" xmlns="http://www.w3.org/2000/svg" p-id="16241" xmlns:xlink="http://www.w3.org/1999/xlink" width="200" height="200"><path d="M1011.2 1024h-65.706667c0-119.466667-52.906667-232.96-144.213333-312.32-11.093333-10.24-23.893333-19.626667-35.84-28.16-27.306667-18.773333-61.44-4.266667-115.2 21.333333-40.96 19.626667-87.893333 40.96-138.24 40.96-50.346667 0-97.28-22.186667-138.24-40.96-53.76-25.6-88.746667-40.106667-116.053333-20.48-11.093333 7.68-22.186667 16.213333-33.28 25.6C131.413333 789.333333 78.506667 903.68 78.506667 1024H12.8c0-70.826667 15.36-139.093333 46.08-203.093333 29.013333-61.44 71.68-116.053333 122.88-160.426667 11.946667-10.24 24.746667-20.48 38.4-29.866667 28.16-19.626667 58.88-25.6 96.426667-17.92 29.013333 5.973333 57.173333 19.626667 85.333333 32.426667 36.693333 17.066667 74.24 34.986667 110.08 34.986667 35.84 0 73.386667-17.92 110.08-34.986667 28.16-12.8 56.32-26.453333 85.333333-32.426667 36.693333-7.68 68.266667-1.706667 96.426667 17.066667 14.506667 10.24 28.16 20.48 41.813333 32.426667 52.053333 45.226667 93.013333 98.986667 122.026667 160.426666 28.16 62.293333 43.52 131.413333 43.52 201.386667zM512 596.48c-82.773333 0-160.426667-30.72-219.306667-87.04-58.88-56.32-91.306667-131.413333-91.306666-210.773333 0-80.213333 32.426667-155.306667 91.306666-211.626667C351.573333 30.72 429.226667 0 512 0s160.426667 30.72 219.306667 87.04c58.88 56.32 91.306667 131.413333 91.306666 211.626667s-32.426667 155.306667-91.306666 211.626666c-58.88 55.466667-136.533333 86.186667-219.306667 86.186667zM512 59.733333C373.76 59.733333 260.266667 167.253333 260.266667 298.666667S372.906667 537.6 512 537.6s251.733333-107.52 251.733333-238.933333C763.733333 166.4 651.093333 59.733333 512 59.733333z" fill="#ffffff" p-id="16242"></path></svg>