<?xml version="1.0" standalone="no"?><!DOCTYPE svg PUBLIC "-//W3C//DTD SVG 1.1//EN" "http://www.w3.org/Graphics/SVG/1.1/DTD/svg11.dtd"><svg t="1732610512587" class="icon" viewBox="0 0 1024 1024" version="1.1" xmlns="http://www.w3.org/2000/svg" p-id="1876" xmlns:xlink="http://www.w3.org/1999/xlink" width="200" height="200"><path d="M904.821875 198.340625l15.58125-16.696875a41.9428125 41.9428125 0 0 0 11.2875-28.63125V134.28125c0-23.175-18.7875-41.971875-41.971875-41.971875H134.28125c-23.175 0-41.971875 18.7875-41.971875 41.971875v18.721875c0 10.63125 4.03125 20.859375 11.2875 28.63125l15.58125 16.696875a41.986875 41.986875 0 0 1 11.2875 28.63125v7.809375c0 10.63125-4.03125 20.859375-11.2875 28.63125l-15.58125 16.696875a41.986875 41.986875 0 0 0-11.2875 28.63125v68.7c0 23.175 18.7875 41.971875 41.971875 41.971875h34.734375c-0.24375 1.8375-0.384375 3.7125-0.384375 5.625V450.125c0 23.184375 18.7875 41.971875 41.971875 41.971875h68.671875c8.446875 0 16.303125-2.503125 22.884375-6.796875 6.58125 4.29375 14.4375 6.796875 22.884375 6.796875h68.671875c8.446875 0 16.3125-2.503125 22.89375-6.80625a41.7984375 41.7984375 0 0 0 22.89375 6.80625h68.671875c8.446875 0 16.303125-2.503125 22.884375-6.796875 6.58125 4.29375 14.4375 6.796875 22.884375 6.796875H622.625c23.175 0 41.971875-18.7875 41.971875-41.971875v-25.096875c0-1.9125-0.140625-3.7875-0.384375-5.625h38.925c-0.24375 1.8375-0.384375 3.7125-0.384375 5.625V450.125c0 23.184375 18.7875 41.971875 41.971875 41.971875h68.68125c23.175 0 41.971875-18.7875 41.971875-41.971875v-25.096875c0-1.9125-0.140625-3.7875-0.384375-5.625h34.725c23.175 0 41.971875-18.7875 41.971875-41.971875v-68.7c0-10.63125-4.03125-20.859375-11.2875-28.63125l-15.58125-16.696875a41.9428125 41.9428125 0 0 1-11.2875-28.63125v-7.809375c0-10.621875 4.03125-20.85 11.2875-28.621875zM813.415625 450.125h-68.68125v-25.096875h68.68125V450.125z m-534.140625 0H210.59375v-25.096875h68.671875V450.125z m114.45 0h-68.671875v-25.096875h68.671875V450.125z m114.46875 0h-68.671875v-25.096875h68.671875V450.125z m114.45 0h-68.68125v-25.096875h68.68125V450.125zM889.71875 153.003125l-15.58125 16.696875a83.9465625 83.9465625 0 0 0-22.575 57.2625v7.809375c0 21.2625 8.0625 41.728125 22.575 57.2625l15.58125 16.696875v68.7H134.28125v-68.7l15.58125-16.696875a83.9371875 83.9371875 0 0 0 22.565625-57.2625v-7.809375c0-21.253125-8.0625-41.728125-22.565625-57.2625l-15.58125-16.696875V134.28125h755.4375v18.721875z" p-id="1877"></path><path d="M286.8875 346.71875h68.671875c23.175 0 41.971875-18.7875 41.971875-41.971875v-97.78125c0-23.175-18.7875-41.971875-41.971875-41.971875h-68.671875c-23.175 0-41.971875 18.7875-41.971875 41.971875v97.78125c0 23.184375 18.796875 41.971875 41.971875 41.971875z m0-139.753125h68.671875v97.78125h-68.671875v-97.78125zM477.65 346.71875h68.68125c23.175 0 41.971875-18.7875 41.971875-41.971875v-97.78125c0-23.175-18.7875-41.971875-41.971875-41.971875h-68.68125c-23.175 0-41.9625 18.7875-41.9625 41.971875v97.78125c0 23.184375 18.7875 41.971875 41.9625 41.971875z m0-139.753125h68.68125v97.78125h-68.68125v-97.78125zM668.421875 346.71875h68.671875c23.175 0 41.971875-18.7875 41.971875-41.971875v-97.78125c0-23.175-18.7875-41.971875-41.971875-41.971875h-68.671875c-23.175 0-41.971875 18.7875-41.971875 41.971875v97.78125c0 23.184375 18.796875 41.971875 41.971875 41.971875z m0-139.753125h68.671875v97.78125h-68.671875v-97.78125zM889.71875 531.903125H134.28125c-23.175 0-41.971875 18.7875-41.971875 41.971875v18.721875c0 10.63125 4.03125 20.859375 11.2875 28.63125l15.58125 16.696875a41.986875 41.986875 0 0 1 11.2875 28.63125v7.809375c0 10.621875-4.03125 20.859375-11.2875 28.63125l-15.58125 16.70625a41.986875 41.986875 0 0 0-11.2875 28.63125v68.7c0 23.175 18.7875 41.971875 41.971875 41.971875h34.734375c-0.24375 1.8375-0.384375 3.7125-0.384375 5.625v25.096875c0 23.175 18.7875 41.971875 41.971875 41.971875h68.671875c8.446875 0 16.303125-2.503125 22.884375-6.796875 6.58125 4.29375 14.4375 6.796875 22.884375 6.796875h68.671875c8.446875 0 16.3125-2.503125 22.89375-6.80625a41.7984375 41.7984375 0 0 0 22.89375 6.80625h68.671875c8.446875 0 16.303125-2.503125 22.884375-6.796875 6.58125 4.29375 14.4375 6.796875 22.884375 6.796875H622.625c23.175 0 41.971875-18.7875 41.971875-41.971875v-25.096875c0-1.9125-0.140625-3.7875-0.384375-5.625h38.925c-0.24375 1.8375-0.384375 3.7125-0.384375 5.625v25.096875c0 23.175 18.7875 41.971875 41.971875 41.971875h68.68125c23.175 0 41.971875-18.7875 41.971875-41.971875v-25.096875c0-1.9125-0.140625-3.7875-0.384375-5.625h34.725c23.175 0 41.971875-18.796875 41.971875-41.971875v-68.7c0-10.621875-4.03125-20.859375-11.2875-28.63125l-15.58125-16.70625a41.9428125 41.9428125 0 0 1-11.2875-28.63125v-7.809375c0-10.63125 4.03125-20.859375 11.2875-28.63125l15.58125-16.696875a41.9428125 41.9428125 0 0 0 11.2875-28.63125V573.875c0-23.184375-18.7875-41.971875-41.971875-41.971875zM813.415625 889.71875h-68.68125v-25.096875h68.68125v25.096875z m-534.140625 0H210.59375v-25.096875h68.671875v25.096875z m114.45 0h-68.671875v-25.096875h68.671875v25.096875z m114.46875 0h-68.671875v-25.096875h68.671875v25.096875z m114.45 0h-68.68125v-25.096875h68.68125v25.096875zM889.71875 592.596875l-15.58125 16.70625a83.9465625 83.9465625 0 0 0-22.575 57.2625v7.809375c0 21.253125 8.0625 41.728125 22.575 57.2625l15.58125 16.696875v68.7H134.28125v-68.7l15.58125-16.696875a83.9371875 83.9371875 0 0 0 22.565625-57.2625v-7.809375c0-21.253125-8.0625-41.728125-22.565625-57.2625l-15.58125-16.70625V573.875h755.4375v18.721875z" p-id="1878"></path><path d="M286.8875 786.3125h68.671875c23.175 0 41.971875-18.7875 41.971875-41.971875v-97.78125c0-23.175-18.7875-41.971875-41.971875-41.971875h-68.671875c-23.175 0-41.971875 18.7875-41.971875 41.971875v97.78125c0 23.184375 18.796875 41.971875 41.971875 41.971875z m0-139.753125h68.671875v97.78125h-68.671875v-97.78125zM477.65 786.3125h68.68125c23.175 0 41.971875-18.7875 41.971875-41.971875v-97.78125c0-23.175-18.7875-41.971875-41.971875-41.971875h-68.68125c-23.175 0-41.9625 18.7875-41.9625 41.971875v97.78125c0 23.184375 18.7875 41.971875 41.9625 41.971875z m0-139.753125h68.68125v97.78125h-68.68125v-97.78125zM668.421875 786.3125h68.671875c23.175 0 41.971875-18.7875 41.971875-41.971875v-97.78125c0-23.175-18.7875-41.971875-41.971875-41.971875h-68.671875c-23.175 0-41.971875 18.7875-41.971875 41.971875v97.78125c0 23.184375 18.796875 41.971875 41.971875 41.971875z m0-139.753125h68.671875v97.78125h-68.671875v-97.78125z" p-id="1879"></path></svg>