<?xml version="1.0" standalone="no"?><!DOCTYPE svg PUBLIC "-//W3C//DTD SVG 1.1//EN" "http://www.w3.org/Graphics/SVG/1.1/DTD/svg11.dtd"><svg t="1732610505353" class="icon" viewBox="0 0 1024 1024" version="1.1" xmlns="http://www.w3.org/2000/svg" p-id="1559" xmlns:xlink="http://www.w3.org/1999/xlink" width="200" height="200"><path d="M870.1 64.37H153.9c-24.72 0-44.76 20.04-44.76 44.76v805.73c0 24.72 20.04 44.76 44.76 44.76h716.2c24.72 0 44.76-20.04 44.76-44.76V109.14c0-24.73-20.04-44.77-44.76-44.77zM153.9 243.42h44.76v223.81H153.9V243.42z m716.2 671.44H153.9V512h44.76c24.72 0 44.76-20.04 44.76-44.76V243.42c0-24.72-20.04-44.76-44.76-44.76H153.9v-89.53h716.2v805.73z" p-id="1560"></path><path d="M691.05 556.76h89.53c24.72 0 44.76-20.04 44.76-44.76V198.66c0-24.72-20.04-44.76-44.76-44.76h-89.53c-24.72 0-44.76 20.04-44.76 44.76V512c0 24.72 20.04 44.76 44.76 44.76z m0-358.1h89.53V512h-89.53V198.66zM332.95 512h223.82c24.72 0 44.76-20.04 44.76-44.76V243.42c0-24.72-20.04-44.76-44.76-44.76H332.95c-24.72 0-44.76 20.04-44.76 44.76v223.81c0 24.73 20.04 44.77 44.76 44.77z m0-268.58h223.81v223.81H332.95V243.42zM623.91 735.81H355.33c-12.36 0-22.38 10.02-22.38 22.38s10.02 22.38 22.38 22.38h268.58c12.36 0 22.38-10.02 22.38-22.38 0-12.35-10.02-22.38-22.38-22.38zM623.91 825.34H355.33c-12.36 0-22.38 10.02-22.38 22.38s10.02 22.38 22.38 22.38h268.58c12.36 0 22.38-10.02 22.38-22.38s-10.02-22.38-22.38-22.38zM265.81 735.81h-44.76c-12.36 0-22.38 10.02-22.38 22.38s10.02 22.38 22.38 22.38h44.76c12.36 0 22.38-10.02 22.38-22.38 0-12.35-10.02-22.38-22.38-22.38zM332.95 668.67c0 12.36 10.02 22.38 22.38 22.38h268.58c12.36 0 22.38-10.02 22.38-22.38s-10.02-22.38-22.38-22.38H355.33c-12.36 0-22.38 10.02-22.38 22.38zM198.66 668.67c0 12.36 10.02 22.38 22.38 22.38h44.76c12.36 0 22.38-10.02 22.38-22.38s-10.02-22.38-22.38-22.38h-44.76c-12.36 0-22.38 10.02-22.38 22.38zM265.81 825.34h-44.76c-12.36 0-22.38 10.02-22.38 22.38s10.02 22.38 22.38 22.38h44.76c12.36 0 22.38-10.02 22.38-22.38s-10.02-22.38-22.38-22.38zM713.43 601.53c-12.36 0-22.38 10.02-22.38 22.38V758.2c0 12.36 10.02 22.38 22.38 22.38s22.38-10.02 22.38-22.38V623.91c0-12.36-10.02-22.38-22.38-22.38zM802.96 601.53c-12.36 0-22.38 10.02-22.38 22.38V758.2c0 12.36 10.02 22.38 22.38 22.38s22.38-10.02 22.38-22.38V623.91c0-12.36-10.02-22.38-22.38-22.38z" p-id="1561"></path><path d="M713.43 847.72m-22.38 0a22.38 22.38 0 1 0 44.76 0 22.38 22.38 0 1 0-44.76 0Z" p-id="1562"></path><path d="M355.33 176.28m-22.38 0a22.38 22.38 0 1 0 44.76 0 22.38 22.38 0 1 0-44.76 0Z" p-id="1563"></path><path d="M346.772314 555.046555a22.38 22.38 0 1 0 17.128911-41.352848 22.38 22.38 0 1 0-17.128911 41.352848Z" p-id="1564"></path><path d="M423.098497 539.494599a22.38 22.38 0 1 0 43.562001-10.286382 22.38 22.38 0 1 0-43.562001 10.286382Z" p-id="1565"></path><path d="M525.821386 555.043166a22.38 22.38 0 1 0 17.128911-41.352848 22.38 22.38 0 1 0-17.128911 41.352848Z" p-id="1566"></path><path d="M802.96 847.72m-22.38 0a22.38 22.38 0 1 0 44.76 0 22.38 22.38 0 1 0-44.76 0Z" p-id="1567"></path><path d="M444.86 176.28m-22.38 0a22.38 22.38 0 1 0 44.76 0 22.38 22.38 0 1 0-44.76 0Z" p-id="1568"></path><path d="M534.38 176.28m-22.38 0a22.38 22.38 0 1 0 44.76 0 22.38 22.38 0 1 0-44.76 0Z" p-id="1569"></path><path d="M735.81 243.42c-12.36 0-22.38 10.02-22.38 22.38v179.05c0 12.36 10.02 22.38 22.38 22.38s22.38-10.02 22.38-22.38V265.81c0-12.37-10.02-22.39-22.38-22.39z" p-id="1570"></path></svg>