<?xml version="1.0" standalone="no"?><!DOCTYPE svg PUBLIC "-//W3C//DTD SVG 1.1//EN" "http://www.w3.org/Graphics/SVG/1.1/DTD/svg11.dtd"><svg t="1732610492326" class="icon" viewBox="0 0 1024 1024" version="1.1" xmlns="http://www.w3.org/2000/svg" p-id="1095" xmlns:xlink="http://www.w3.org/1999/xlink" width="200" height="200"><path d="M918.62 186.29H104.35c-22.49 0-40.71 18.23-40.71 40.71v569.99c0 22.49 18.23 40.71 40.71 40.71h814.27c22.49 0 40.71-18.23 40.71-40.71V227.01c0-22.49-18.22-40.72-40.71-40.72z m0 610.7H104.35V227.01h814.27v569.98z" p-id="1096"></path><path d="M816.84 593.43H653.98c-22.49 0-40.71 18.23-40.71 40.71v40.71c0 22.49 18.23 40.71 40.71 40.71h162.85c22.49 0 40.71-18.23 40.71-40.71v-40.71c0.01-22.49-18.22-40.71-40.7-40.71z m-162.86 81.42v-40.71h81.43v40.71h-81.43z m162.86 0h-40.71v-40.71h40.71v40.71zM633.63 552.71H837.2c22.49 0 40.71-18.23 40.71-40.71V386.37c0-10.8-4.28-21.15-11.92-28.78l-28.8-28.8c-20.31-20.31-30.49-20.36-30.54-20.36h-142.5c-0.09 0-10.27 0.09-30.54 20.36l-28.8 28.8a40.715 40.715 0 0 0-11.92 28.78V512c0.02 22.49 18.25 40.71 40.74 40.71z m0-166.34l28.79-28.79c4.34-4.33 7.54-6.94 9.6-8.43H798.8c2.06 1.49 5.26 4.1 9.6 8.43l28.79 28.79V512H633.63V386.37zM185.78 715.57H511.49c22.49 0 40.71-18.23 40.71-40.71V349.15c0-22.49-18.23-40.71-40.71-40.71H185.78c-22.49 0-40.71 18.23-40.71 40.71V674.86c0 22.48 18.22 40.71 40.71 40.71z m28.5-40.72l34.33-34.33c22.56 17.58 49.86 29.35 79.66 33.07v1.26H214.28z m92.81-92.8c-0.15-0.09-0.29-0.18-0.44-0.27 7.65 4.61 16.12 8 25.14 9.9-1.18-0.25-2.35-0.51-3.51-0.81v41.58a121.552 121.552 0 0 1-50.58-21l29.39-29.4z m-18.47-15.03z m2.62 2.73c0.76 0.75 1.53 1.49 2.32 2.21-0.79-0.72-1.57-1.46-2.32-2.21z m2.9 2.75z m2.97 2.54c0.8 0.66 1.62 1.29 2.44 1.92-0.83-0.62-1.64-1.26-2.44-1.92z m3.06 2.39c0.92 0.68 1.86 1.35 2.81 2-0.95-0.65-1.89-1.31-2.81-2z m3.27 2.31c0.85 0.57 1.7 1.11 2.57 1.65-0.86-0.54-1.72-1.09-2.57-1.65zM389.35 512c0 22.49-18.23 40.71-40.71 40.71s-40.71-18.23-40.71-40.71c0-22.49 18.23-40.71 40.71-40.71s40.71 18.22 40.71 40.71z m-44.46-81.33c1.24-0.06 2.49-0.09 3.74-0.09s2.5 0.04 3.74 0.09a77.477 77.477 0 0 0-7.48 0z m7.48 162.66c-1.24 0.06-2.49 0.09-3.74 0.09s-2.5-0.04-3.74-0.09a77.477 77.477 0 0 0 7.48 0z m-8.28-0.04c-1.2-0.07-2.4-0.16-3.59-0.27 1.19 0.12 2.39 0.21 3.59 0.27z m-4.21-0.34a85.79 85.79 0 0 1-3.22-0.41c1.07 0.16 2.14 0.3 3.22 0.41z m-3.84-0.5z m29.44-0.78a81.07 81.07 0 0 0 25.08-9.86c-0.19 0.11-0.37 0.23-0.56 0.34l29.41 29.41A121.47 121.47 0 0 1 369 632.44v-41.58c-1.17 0.3-2.34 0.56-3.52 0.81z m-12.31 1.62c1.2-0.07 2.4-0.16 3.59-0.27-1.18 0.12-2.38 0.21-3.59 0.27z m4.21-0.34c1.08-0.12 2.15-0.25 3.22-0.41-1.06 0.16-2.14 0.3-3.22 0.41z m3.85-0.5z m30.02-11.07a79.042 79.042 0 0 1 0 0z m2.99-1.91c0.95-0.64 1.88-1.31 2.79-1.99-0.92 0.68-1.85 1.34-2.79 1.99z m3.48-2.51a71.5 71.5 0 0 1 0 0z m2.75-2.16z m3.24-2.84c0.84-0.77 1.67-1.55 2.47-2.35-0.81 0.8-1.63 1.58-2.47 2.35z m15.08-18.6c-0.11 0.19-0.23 0.37-0.34 0.56a81.07 81.07 0 0 0 9.05-21.56h41.58a121.36 121.36 0 0 1-20.88 50.41l-29.41-29.41z m-12.55 16.19c0.8-0.81 1.59-1.63 2.36-2.47-0.77 0.83-1.56 1.66-2.36 2.47z m2.94-3.12z m2.41-2.79z m2.52-3.24z m2.21-3.13z m11.18-24.95z m0.97-4.25z m0.7-4.09z m0.48-3.84z m0.31-4.4c0.06-1.24 0.09-2.49 0.09-3.74s-0.04-2.5-0.09-3.74c0.06 1.24 0.09 2.49 0.09 3.74 0.01 1.25-0.03 2.5-0.09 3.74z m-2.47-24.1s0 0.01 0 0a80.678 80.678 0 0 0-9.08-21.61c0.09 0.14 0.18 0.28 0.26 0.43l29.39-29.39c10.54 14.75 17.88 31.95 21 50.58h-41.57z m2.44 15.82z m-0.34-4.2c-0.12-1.09-0.25-2.17-0.41-3.24 0.15 1.07 0.29 2.15 0.41 3.24z m-0.5-3.85z m-0.78-4.25z m-21.91-40.53c0.74 0.75 1.47 1.51 2.18 2.28-0.71-0.77-1.43-1.54-2.18-2.28z m2.74 2.89z m2.55 2.97z m2.38 3.06z m2.31 3.28z m-26.56-25.09l0.69 0.42a81.09 81.09 0 0 0-21.52-9.03v-41.58c18.49 3.1 35.57 10.35 50.25 20.76l-29.42 29.43z m16.33 12.63z m-3.11-2.94z m-2.64-2.29z m-3.4-2.64a72.593 72.593 0 0 1 0 0z m-2.87-2.04z m-40.96-13.75c1.21 0.07 2.41 0.16 3.6 0.27-1.19-0.12-2.39-0.21-3.6-0.27z m4.2 0.34c1.09 0.12 2.18 0.25 3.25 0.41-1.07-0.16-2.16-0.3-3.25-0.41z m3.85 0.49c1.17 0.18 2.33 0.39 3.49 0.62-1.16-0.22-2.32-0.43-3.49-0.62z m4.25 0.79c1.17 0.25 2.34 0.51 3.49 0.81-1.15-0.3-2.31-0.57-3.49-0.81z m-37.19 0.81a80.932 80.932 0 0 0-21.56 9.05c0.18-0.11 0.37-0.23 0.55-0.34l-29.41-29.41a121.47 121.47 0 0 1 50.41-20.88l0.01 41.58z m15.81-2.43c-1.21 0.07-2.41 0.16-3.6 0.27 1.2-0.12 2.4-0.21 3.6-0.27z m-4.2 0.34c-1.09 0.12-2.18 0.25-3.25 0.41 1.08-0.16 2.16-0.3 3.25-0.41z m-3.84 0.49c-1.17 0.18-2.33 0.39-3.49 0.62 1.15-0.22 2.31-0.43 3.49-0.62z m-4.26 0.79c-1.17 0.25-2.34 0.51-3.49 0.81 1.15-0.3 2.32-0.57 3.49-0.81z m-40.73 22.09c0.82-0.82 1.65-1.61 2.5-2.39-0.84 0.78-1.68 1.57-2.5 2.39z m3.13-2.96c0.85-0.77 1.72-1.53 2.61-2.26-0.88 0.73-1.75 1.49-2.61 2.26z m2.8-2.41z m3.24-2.52z m3.13-2.22c0.87-0.58 1.75-1.15 2.64-1.69-0.88 0.55-1.77 1.11-2.64 1.69z m-24.88 26.33c0.11-0.19 0.23-0.37 0.34-0.55a81.07 81.07 0 0 0-9.05 21.56h-41.58a121.36 121.36 0 0 1 20.88-50.41l29.41 29.4z m12.57-16.21z m-2.96 3.13c-0.77 0.85-1.53 1.72-2.26 2.61 0.73-0.89 1.49-1.75 2.26-2.61z m-2.41 2.79z m-2.52 3.24z m-2.21 3.14c-0.58 0.87-1.14 1.75-1.69 2.64 0.54-0.89 1.1-1.77 1.69-2.64z m-11.18 24.93z m-0.97 4.26z m-0.71 4.09c-0.16 1.07-0.3 2.16-0.41 3.24 0.12-1.08 0.25-2.16 0.41-3.24z m-0.48 3.85z m-0.31 4.4c-0.06 1.24-0.09 2.49-0.09 3.74 0 1.26 0.04 2.5 0.09 3.74a77.477 77.477 0 0 1 0-7.48z m2.47 24.1c1.97 7.67 5.05 14.9 9.03 21.53-0.14-0.23-0.29-0.46-0.43-0.7l-29.42 29.42a121.4 121.4 0 0 1-20.76-50.25h41.58z m-2.43-15.82c0.07 1.21 0.16 2.4 0.27 3.6-0.12-1.2-0.21-2.39-0.27-3.6z m0.34 4.2z m0.5 3.85z m0.78 4.25z m19.11 37.58a74.84 74.84 0 0 1-2.19-2.53c0.71 0.86 1.45 1.7 2.19 2.53z m-2.29-2.65z m-2.64-3.39a97.55 97.55 0 0 0 0 0z m-2.03-2.86c-0.65-0.96-1.27-1.95-1.88-2.94 0.6 0.99 1.23 1.98 1.88 2.94z m87.88 116.07c29.73-3.71 56.98-15.43 79.5-32.94l34.21 34.21H368.99v-1.27z m142.5-27.52l-34.21-34.21c17.51-22.52 29.24-49.77 32.94-79.5h1.26v113.71z m-1.27-154.43c-3.72-29.81-15.49-57.11-33.07-79.66l34.33-34.33v113.99h-1.26z m-27.81-142.49l-34.08 34.08c-22.49-17.44-49.67-29.12-79.34-32.82v-1.26h113.42z m-154.13 1.26c-29.73 3.71-56.98 15.43-79.5 32.94l-34.21-34.21h113.71v1.27z m-142.5 27.53l34.21 34.21c-17.51 22.52-29.24 49.77-32.94 79.5h-1.26V377.94z m1.26 154.42c3.7 29.66 15.38 56.84 32.82 79.34l-34.08 34.08V532.36h1.26z" p-id="1097"></path><path d="M694.7 410.22c-11.24 0-20.36 9.11-20.36 20.36v40.71c0 11.24 9.12 20.36 20.36 20.36s20.36-9.12 20.36-20.36v-40.71c-0.01-11.25-9.12-20.36-20.36-20.36zM776.12 410.22c-11.24 0-20.36 9.11-20.36 20.36v40.71c0 11.24 9.12 20.36 20.36 20.36s20.36-9.12 20.36-20.36v-40.71c0-11.25-9.12-20.36-20.36-20.36z" p-id="1098"></path></svg>